<svg width="83" height="82" viewBox="0 0 83 82" fill="none" xmlns="http://www.w3.org/2000/svg">
<g clip-path="url(#clip0_149_45)">
<path d="M41.5 2.10254C63.2829 2.10254 80.8975 19.5413 80.8975 41C80.8975 62.4587 63.2829 79.8975 41.5 79.8975C19.7171 79.8975 2.10254 62.4587 2.10254 41C2.10254 19.5413 19.7171 2.10254 41.5 2.10254Z" fill="#E0E9EE" stroke="#001F54" stroke-width="4.20455"/>
<path d="M41.5 6.20825L12.625 19.0416V38.2916C12.625 56.0978 24.945 72.7491 41.5 76.7916C58.055 72.7491 70.375 56.0978 70.375 38.2916V19.0416L41.5 6.20825ZM41.5 18.7208C43.4036 18.7208 45.2645 19.2852 46.8474 20.3429C48.4302 21.4005 49.6638 22.9037 50.3923 24.6624C51.1208 26.4212 51.3114 28.3564 50.9401 30.2235C50.5687 32.0906 49.652 33.8056 48.3059 35.1517C46.9598 36.4977 45.2448 37.4144 43.3777 37.7858C41.5107 38.1572 39.5754 37.9666 37.8167 37.2381C36.0579 36.5096 34.5547 35.2759 33.4971 33.6931C32.4395 32.1103 31.875 30.2494 31.875 28.3458C31.875 25.793 32.8891 23.3449 34.6941 21.5399C36.4991 19.7348 38.9473 18.7208 41.5 18.7208ZM41.5 44.0666C47.9167 44.0666 60.75 47.5637 60.75 53.9483C58.6429 57.1249 55.7823 59.7307 52.4235 61.5333C49.0647 63.3359 45.312 64.2792 41.5 64.2792C37.688 64.2792 33.9353 63.3359 30.5765 61.5333C27.2177 59.7307 24.3571 57.1249 22.25 53.9483C22.25 47.5637 35.0833 44.0666 41.5 44.0666Z" fill="black"/>
</g>
<defs>
<clipPath id="clip0_149_45">
<rect width="83" height="82" fill="white"/>
</clipPath>
</defs>
</svg>
