<svg width="64" height="64" viewBox="0 0 64 64" fill="none" xmlns="http://www.w3.org/2000/svg">
<path d="M53.3333 40C53.3333 44.9707 53.3333 47.456 52.5227 49.4133C51.9866 50.7076 51.2008 51.8837 50.2103 52.8743C49.2197 53.8649 48.0436 54.6506 46.7493 55.1867C44.7893 56 42.304 56 37.3333 56H29.3333C19.2747 56 14.2453 56 11.12 52.8747C8 49.752 8 44.7227 8 34.6667V18.6667C8 15.8377 9.12381 13.1246 11.1242 11.1242C13.1246 9.12381 15.8377 8 18.6667 8" stroke="#0D99FF" stroke-width="4" stroke-linecap="round" stroke-linejoin="round"/>
<path d="M26.6667 22.6666L27.8241 33.2506C27.8733 33.6845 28.035 34.0981 28.2932 34.4503C28.5513 34.8025 28.8971 35.0811 29.2961 35.2586C31.1254 36.0453 34.5521 37.3333 37.3334 37.3333C40.1147 37.3333 43.5414 36.0453 45.3707 35.2586C45.7703 35.0815 46.1165 34.803 46.3752 34.4508C46.6339 34.0986 46.796 33.6848 46.8454 33.2506L48.0001 22.6666M54.6667 20V30.0533M37.3334 10.6666L18.6667 18.6666L37.3334 26.6666L56.0001 18.6666L37.3334 10.6666Z" stroke="#0D99FF" stroke-width="4" stroke-linecap="round" stroke-linejoin="round"/>
</svg>
