<svg width="34" height="34" viewBox="0 0 34 34" fill="none" xmlns="http://www.w3.org/2000/svg">
<path d="M4.95825 26.2083C4.95825 20.7518 4.95825 7.79163 4.95825 7.79163C4.95825 5.44441 6.86104 3.54163 9.20825 3.54163H24.7916V21.9583C24.7916 21.9583 12.9147 21.9583 9.20825 21.9583C6.87075 21.9583 4.95825 23.8596 4.95825 26.2083Z" fill="#2F88FF" stroke="black" stroke-width="2.16667" stroke-linejoin="round"/>
<path d="M24.7916 21.9583C24.7916 21.9583 10.0255 21.9583 9.20825 21.9583C6.86104 21.9583 4.95825 23.861 4.95825 26.2083C4.95825 28.5555 6.86104 30.4583 9.20825 30.4583C10.773 30.4583 18.3286 30.4583 29.0416 30.4583V4.95825" stroke="black" stroke-width="2.16667" stroke-linecap="round" stroke-linejoin="round"/>
<path d="M9.9165 26.2083H24.0832" stroke="black" stroke-width="2.16667" stroke-linecap="round" stroke-linejoin="round"/>
</svg>
