<svg width="46" height="46" viewBox="0 0 46 46" fill="none" xmlns="http://www.w3.org/2000/svg">
<g clip-path="url(#clip0_110_65)">
<path fill-rule="evenodd" clip-rule="evenodd" d="M10.826 0.939697C9.21603 0.939697 7.66845 1.15655 6.24245 1.38984C4.73102 1.64284 3.52188 2.62855 2.70703 3.82784C1.84954 5.1426 1.34799 6.65742 1.25145 8.22413C1.1036 10.2908 0.972168 12.4463 0.972168 14.6608C0.972168 16.8754 1.1036 19.0308 1.25145 21.0943C1.37303 22.7371 1.8856 24.2814 2.70703 25.4906C3.52188 26.6931 4.72774 27.6788 6.24245 27.9286C7.66845 28.1618 9.21931 28.3787 10.826 28.3787C12.436 28.3787 13.9869 28.1618 15.4129 27.9286C16.9243 27.6788 18.1335 26.6931 18.9483 25.4906C19.806 24.1761 20.3065 22.661 20.4006 21.0943C20.5517 19.0276 20.6832 16.8721 20.6832 14.6608C20.6832 12.4496 20.5517 10.2908 20.4006 8.22413C20.3065 6.65744 19.806 5.14227 18.9483 3.82784C18.1335 2.62527 16.9276 1.63955 15.4096 1.38984C13.8965 1.11532 12.3636 0.964775 10.826 0.939697ZM35.1567 45.0603C36.7667 45.0603 38.3242 44.8434 39.7502 44.6101C41.2649 44.3637 42.474 43.378 43.2922 42.1787C44.1136 40.963 44.6295 39.4253 44.7477 37.7791C44.8989 35.7157 45.0303 33.5603 45.0303 31.349C45.0303 29.1377 44.8989 26.9823 44.7477 24.9188C44.6542 23.3516 44.1524 21.836 43.2922 20.5226C42.4707 19.32 41.2649 18.3343 39.7502 18.0878C38.2331 17.8184 36.6973 17.6678 35.1567 17.6377C33.5467 17.6377 31.9893 17.8546 30.5633 18.0878C29.0486 18.3343 27.8395 19.32 27.0213 20.5193C26.1619 21.8343 25.6602 23.3507 25.5657 24.9188C25.3938 27.0581 25.2995 29.2029 25.2832 31.349C25.2832 33.5603 25.4146 35.7157 25.5657 37.7791C25.684 39.422 26.1966 40.9663 27.0213 42.1754C27.8427 43.378 29.0486 44.3637 30.5633 44.6101C32.0804 44.8796 33.6162 45.0301 35.1567 45.0603Z" fill="#8FBFFA"/>
<path fill-rule="evenodd" clip-rule="evenodd" d="M39.5794 12.7978C38.1633 12.88 36.6781 12.9556 35.1536 12.9556C33.629 12.9556 32.1439 12.88 30.7277 12.7978C29.641 12.747 28.5773 12.4671 27.6063 11.9764C26.7717 11.5361 25.832 10.7541 25.5889 9.55484C25.399 8.69772 25.2956 7.82374 25.28 6.94598C25.2958 6.06933 25.3992 5.19646 25.5889 4.34041C25.832 3.13784 26.7717 2.35913 27.6063 1.91555C28.4934 1.44241 29.5876 1.16641 30.7277 1.09741C32.1439 1.01527 33.629 0.939697 35.1536 0.939697C36.6781 0.939697 38.1633 1.01527 39.5794 1.09741C40.7163 1.16313 41.8137 1.44241 42.7009 1.91555C43.5354 2.35913 44.4751 3.13784 44.7183 4.34041C44.8727 5.10927 45.0271 6.00298 45.0271 6.94598C45.0271 7.88898 44.8727 8.78598 44.7183 9.55484C44.4751 10.7541 43.5354 11.5361 42.7009 11.9797C41.8137 12.4496 40.7163 12.7288 39.5794 12.7978ZM6.40685 33.2021C7.81971 33.12 9.30156 33.0444 10.8229 33.0444C12.3441 33.0444 13.826 33.12 15.2421 33.2021C16.379 33.2711 17.4699 33.5504 18.357 34.0236C19.1916 34.4671 20.1313 35.2458 20.3711 36.4451C20.5256 37.214 20.68 38.1077 20.68 39.054C20.68 39.997 20.5256 40.8907 20.3711 41.6596C20.128 42.8588 19.1916 43.6376 18.357 44.0844C17.3896 44.5778 16.3271 44.8568 15.2421 44.9026C13.8293 44.9847 12.3441 45.0603 10.8229 45.0603C9.30156 45.0603 7.81971 44.9847 6.40685 44.9026C5.3216 44.8558 4.25918 44.5756 3.29199 44.0811C2.45414 43.6376 1.51771 42.8588 1.27785 41.6596C1.08824 40.8035 0.984777 39.9306 0.968994 39.054C0.968994 38.1077 1.12342 37.214 1.27785 36.4451C1.51771 35.2458 2.45414 34.4671 3.29199 34.0203C4.17914 33.5504 5.26999 33.2711 6.40685 33.2054" fill="#2859C5"/>
</g>
<defs>
<clipPath id="clip0_110_65">
<rect width="46" height="46" fill="white"/>
</clipPath>
</defs>
</svg>
