<svg width="91" height="91" viewBox="0 0 91 91" fill="none" xmlns="http://www.w3.org/2000/svg">
<path d="M43.5547 0V2.96875C21.5625 3.86914 3.86914 21.5625 2.96875 43.5547H0V47.0703H2.96875C3.86914 69.0625 21.5625 86.7578 43.5547 87.6562V90.625H47.0703V87.6562C69.0625 86.7578 86.7578 69.0625 87.6562 47.0703H90.625V43.5547H87.6562C86.7578 21.5625 69.0625 3.86914 47.0703 2.96875V0H43.5547ZM43.5547 6.48633V12.5H47.0703V6.48633C67.1484 7.37891 83.2422 23.4766 84.1406 43.5547H78.125V47.0703H84.1406C83.2422 67.1484 67.1484 83.2422 47.0703 84.1406V78.125H43.5547V84.1406C23.4766 83.2422 7.37891 67.1484 6.48633 47.0703H12.5V43.5547H6.48633C7.37891 23.4766 23.4766 7.37891 43.5547 6.48633ZM45.3125 16.7969C41.9973 16.7969 38.8179 18.1138 36.4737 20.458C34.1295 22.8022 32.8125 25.9817 32.8125 29.2969C32.8134 31.7174 33.5171 34.0855 34.8381 36.1138C36.1591 38.142 38.0405 39.7431 40.2539 40.7227C29.0234 50.1758 26.9336 63.5938 29.6875 74.6094H60.9375C63.6914 63.5938 61.582 50.1562 50.3711 40.7031C52.5815 39.7249 54.4608 38.1269 55.7816 36.1024C57.1023 34.078 57.8078 31.714 57.8125 29.2969C57.8125 25.9817 56.4955 22.8022 54.1513 20.458C51.8071 18.1138 48.6277 16.7969 45.3125 16.7969Z" fill="#0D99FF"/>
</svg>
